HIERARCHY
ROOT root
{
	OFFSET 0.000000 0.000000 0.000000
	CHANNELS 6 Xposition Yposition Zposition Zrotation Yrotation Xrotation
	JOINT lhip
	{
		OFFSET 0.058581 -0.082280 -0.017664
		CHANNELS 3 Zrotation Yrotation Xrotation
		JOINT lknee
		{
			OFFSET 0.043451 -0.386469 0.008037
			CHANNELS 3 Zrotation Yrotation Xrotation
			JOINT lankle
			{
				OFFSET -0.014790 -0.426874 -0.037428
				CHANNELS 3 Zrotation Yrotation Xrotation
				JOINT ltoe
				{
					OFFSET 0.041054 -0.060286 0.122042
					CHANNELS 3 Zrotation Yrotation Xrotation
					End Site
					{
						OFFSET 0.000000 0.000000 0.000000
					}
				}
			}
		}
	}
	JOINT rhip
	{
		OFFSET -0.060310 -0.090513 -0.013543
		CHANNELS 3 Zrotation Yrotation Xrotation
		JOINT rknee
		{
			OFFSET -0.043257 -0.383688 -0.004843
			CHANNELS 3 Zrotation Yrotation Xrotation
			JOINT rankle
			{
				OFFSET 0.019056 -0.420046 -0.034562
				CHANNELS 3 Zrotation Yrotation Xrotation
				JOINT rtoe
				{
					OFFSET -0.034840 -0.062106 0.130323
					CHANNELS 3 Zrotation Yrotation Xrotation
					End Site
					{
						OFFSET 0.000000 0.000000 0.000000
					}
				}
			}
		}
	}
	JOINT lowerback
	{
		OFFSET 0.004439 0.124404 -0.038385
		CHANNELS 3 Zrotation Yrotation Xrotation
		JOINT upperback
		{
			OFFSET 0.004488 0.137956 0.026820
			CHANNELS 3 Zrotation Yrotation Xrotation
			JOINT chest
			{
				OFFSET -0.002265 0.056032 0.002855
				CHANNELS 3 Zrotation Yrotation Xrotation
				JOINT lowerneck
				{
					OFFSET -0.013390 0.211636 -0.033468
					CHANNELS 3 Zrotation Yrotation Xrotation
					JOINT upperneck
					{
						OFFSET 0.010113 0.088937 0.050410
						CHANNELS 3 Zrotation Yrotation Xrotation
						End Site
						{
							OFFSET 0.000000 0.000000 0.000000
						}
					}
				}
				JOINT lclavicle
				{
					OFFSET 0.071702 0.114000 -0.018898
					CHANNELS 3 Zrotation Yrotation Xrotation
					JOINT lshoulder
					{
						OFFSET 0.122921 0.045205 -0.019046
						CHANNELS 3 Zrotation Yrotation Xrotation
						JOINT lelbow
						{
							OFFSET 0.255332 -0.015649 -0.022946
							CHANNELS 3 Zrotation Yrotation Xrotation
							JOINT lwrist
							{
								OFFSET 0.265709 0.012698 -0.007375
								CHANNELS 3 Zrotation Yrotation Xrotation
								End Site
								{
									OFFSET 0.000000 0.000000 0.000000
								}
							}
						}
					}
				}
				JOINT rclavicle
				{
					OFFSET -0.082954 0.112472 -0.023707
					CHANNELS 3 Zrotation Yrotation Xrotation
					JOINT rshoulder
					{
						OFFSET -0.113228 0.046853 -0.008472
						CHANNELS 3 Zrotation Yrotation Xrotation
						JOINT relbow
						{
							OFFSET -0.260127 -0.014369 -0.031269
							CHANNELS 3 Zrotation Yrotation Xrotation
							JOINT rwrist
							{
								OFFSET -0.269108 0.006794 -0.006027
								CHANNELS 3 Zrotation Yrotation Xrotation
								End Site
								{
									OFFSET 0.000000 0.000000 0.000000
								}
							}
						}
					}
				}
			}
		}
	}
}
MOTION
Frames: 10
Frame Time: 0.033333
-1.098980 0.645259 0.553083 87.560214 -1.346867 55.382327 24.701348 8.115263 -50.435488 -11.548016 4.703038 93.181766 -2.004399 -4.362899 -20.095910 0.000000 -0.000000 0.000000 -23.847761 -10.802836 -54.139247 -0.163517 -1.378288 106.021292 -6.456349 -10.259626 -19.908601 0.000000 -0.000000 0.000000 -2.050047 0.394405 56.252947 1.214554 -0.206373 4.220953 -0.227439 -1.125095 0.399892 -0.795819 0.068564 -21.079497 4.211683 -3.147302 6.114859 -29.526840 -11.018027 0.493324 -38.135197 -10.311519 2.499531 151.799029 -80.495865 -124.162139 3.895777 -23.702055 2.466360 29.343038 20.689234 3.550830 35.135527 16.845353 4.072445 -93.034742 80.035290 -71.729820 33.786286 13.639476 14.886396 
-1.095362 0.644956 0.553768 87.594082 -0.882405 56.843612 25.571692 8.621099 -51.757750 -11.368670 5.270927 93.310152 -1.900338 -5.269946 -20.265321 0.000000 -0.000000 0.000000 -25.407670 -10.438790 -53.203184 -0.502062 -0.299110 108.991607 -6.668036 -11.757442 -18.989072 0.000000 -0.000000 0.000000 -1.677672 0.031832 56.552482 1.331804 -0.021804 4.596581 0.160210 -1.313555 -0.045779 -1.411632 -0.298000 -21.214386 4.438372 -1.840277 5.182451 -27.189633 -11.731525 0.348868 -38.247861 -9.715112 2.074176 150.013327 -78.302936 -124.319994 4.883446 -21.843702 -4.001873 26.684822 21.373657 3.112378 33.875280 15.917421 3.858985 -100.225701 79.795662 -79.048963 34.742070 14.545888 12.930490 
-1.093474 0.646590 0.554111 87.797297 -0.945725 59.188508 25.715900 9.058608 -53.862440 -11.421884 6.141774 93.070040 -1.476148 -4.714072 -20.073420 0.000000 -0.000000 0.000000 -27.149627 -10.137083 -52.600955 0.033246 1.309376 111.535381 -6.558378 -13.628480 -15.930310 0.000000 -0.000000 0.000000 -1.412277 -0.188003 57.401065 1.257600 0.049149 3.107882 0.370621 -1.105947 0.496287 -1.898166 -1.543039 -21.855267 5.129625 -0.501540 4.397467 -25.023758 -11.851783 -0.369806 -36.946858 -10.766889 0.768813 149.244051 -76.080410 -125.086358 6.143140 -20.907521 -9.095538 23.415848 21.205693 1.887745 32.857278 15.602005 3.141075 -109.314555 77.614309 -90.296731 35.275168 16.062670 8.132086 
-1.089466 0.648298 0.554622 87.968348 -0.532911 62.584720 25.786578 10.074541 -57.082112 -11.185690 6.448612 93.062607 -2.803893 -5.463418 -21.180727 0.000000 -0.000000 0.000000 -28.784418 -10.236158 -50.657620 0.328372 3.129111 113.987588 -3.476387 -13.804175 -15.023397 0.000000 -0.000000 0.000000 -0.443480 -0.656819 58.734597 1.200692 0.026765 0.352003 0.776658 -0.800575 1.946433 -2.573993 -2.027861 -22.070880 5.403382 0.984280 1.758107 -22.109616 -12.281189 -1.752482 -34.678658 -12.683047 -2.138307 147.666939 -72.413597 -124.831915 13.453806 -21.311931 -12.835411 19.156570 20.756634 -0.568356 30.438308 16.408043 0.460497 -120.035508 73.091629 -104.042327 26.185445 19.339485 3.315134 
-1.086671 0.648913 0.554295 87.937485 -0.629856 65.150904 25.651927 10.946384 -59.317073 -10.964592 6.951600 92.953063 -2.658566 -5.642174 -21.403498 0.000000 -0.000000 0.000000 -29.204623 -10.544489 -49.630882 0.542554 4.336980 114.865399 -2.587330 -14.539771 -15.287667 0.000000 -0.000000 0.000000 -0.186723 -0.603488 59.117679 1.101610 -0.249146 -1.003979 1.086731 -0.490930 2.435924 -2.893278 -2.244445 -21.668755 5.761224 1.918618 -0.320068 -19.710570 -12.862157 -2.759771 -32.768123 -13.890769 -4.527421 145.296824 -69.670787 -123.533782 18.832759 -20.142794 -16.816869 15.949000 20.832405 -2.250347 29.030965 17.776206 -1.685656 -122.608616 69.037741 -107.852702 17.429648 19.380459 0.889592 
-1.082175 0.649738 0.553181 87.879957 -0.965473 68.387195 25.518846 11.735409 -62.001223 -11.474974 7.824943 92.771254 -3.489282 -6.007418 -22.371733 0.000000 -0.000000 0.000000 -30.068894 -10.857596 -47.749745 -0.063996 5.621584 114.891219 0.810102 -14.323146 -18.816675 0.000000 -0.000000 0.000000 0.137460 0.053979 59.880944 1.332744 -1.038415 -2.825003 1.547533 0.116359 3.322476 -2.937864 -1.375287 -21.718045 5.361698 1.721043 -2.297906 -15.222242 -14.348798 -4.482484 -29.912940 -16.377868 -7.403552 138.375567 -65.945644 -118.066466 24.946491 -18.562453 -20.116264 11.442432 21.118843 -5.493626 24.659565 20.213466 -5.723767 -122.665195 64.242361 -108.193285 8.299879 19.416550 0.408902 
-1.072767 0.651049 0.552587 87.557288 -1.558065 72.416700 25.574026 13.033357 -65.270305 -11.001906 8.977926 93.015502 -4.210368 -6.217099 -22.860447 0.000000 -0.000000 0.000000 -30.463426 -11.748133 -46.290610 -1.729189 7.080058 112.092229 2.055083 -12.831690 -26.727656 0.000000 -0.000000 0.000000 0.654063 0.332566 60.438085 0.864965 -1.791353 -4.570368 2.051944 -0.166786 2.498578 -3.660570 -1.023588 -20.892478 5.627540 2.472762 -5.179017 -11.536309 -16.480905 -6.714110 -24.508610 -16.045787 -10.932146 133.393018 -62.547644 -114.485558 29.025207 -18.541504 -20.043818 6.402161 22.825251 -8.268570 19.511869 22.059548 -10.670706 -120.533729 61.340768 -106.197164 1.384947 19.731299 4.160613 
-1.060897 0.651737 0.553803 87.662193 -2.429510 76.589995 25.026412 13.580432 -68.481804 -10.687778 9.487863 93.140448 -4.822782 -5.233129 -23.186628 0.000000 -0.000000 0.000000 -30.638679 -13.844456 -46.179062 -2.818479 7.556791 108.721785 5.252216 -14.257775 -34.552031 0.000000 -0.000000 0.000000 1.062528 0.604683 60.108607 0.353913 -2.896923 -6.287921 2.230759 -0.020674 2.115100 -4.170549 -1.698455 -19.555914 6.753227 3.287409 -8.464178 -7.290485 -19.915922 -7.595046 -18.192345 -15.837035 -14.699884 127.134846 -60.475519 -109.052259 32.286881 -17.303839 -20.571531 1.251874 25.461727 -9.777082 13.094831 21.768727 -16.333969 -116.021303 59.924782 -101.914824 -3.985334 19.931308 6.006688 
-1.046650 0.651564 0.560126 87.445930 -3.109340 80.754332 24.071534 14.190141 -70.931722 -10.983763 9.714506 92.661413 -3.618111 -3.703683 -24.068858 0.000000 -0.000000 0.000000 -29.815995 -15.789044 -48.063475 -3.965923 7.376322 106.634241 4.936527 -16.698738 -36.325841 0.000000 -0.000000 0.000000 1.281160 0.699468 60.074707 -0.363051 -3.557658 -8.422538 2.304478 0.380625 1.699837 -4.778087 -2.696227 -19.108996 7.921301 4.070050 -10.800734 -2.848612 -23.345391 -9.202836 -13.030054 -15.739110 -17.346494 119.895294 -60.454477 -102.915118 32.531685 -16.375162 -20.660590 -4.185617 28.070974 -11.276548 8.285727 20.809431 -20.235852 -109.775005 59.535475 -96.204658 -3.985762 20.441341 6.029397 
-1.023945 0.651812 0.575013 86.292190 -3.704125 85.474396 24.212962 14.859423 -71.609171 -10.675254 10.734616 91.700020 -1.539762 -2.316503 -24.797136 0.000000 -0.000000 0.000000 -29.173850 -17.011678 -50.159623 -4.432838 5.832004 104.233646 4.508944 -19.419419 -36.015115 0.000000 -0.000000 0.000000 1.354447 1.262134 58.532395 -1.478876 -3.730416 -9.111113 2.315600 0.935694 0.631157 -6.217962 -4.650125 -18.304165 9.740317 5.404259 -13.585225 3.223004 -27.497367 -10.862749 -10.701453 -15.791854 -18.272944 109.368956 -63.114383 -92.327488 31.759711 -14.357314 -20.351685 -11.400916 31.382426 -12.146135 6.657892 18.604054 -22.358019 -100.453769 60.735971 -85.514156 -2.512254 18.983751 6.862554 
